<?xml version="1.0" encoding="utf-8"?>
<!-- Generator: Adobe Illustrator 16.0.0, SVG Export Plug-In . SVG Version: 6.00 Build 0)  -->
<!DOCTYPE svg PUBLIC "-//W3C//DTD SVG 1.1//EN" "http://www.w3.org/Graphics/SVG/1.1/DTD/svg11.dtd">
<svg version="1.1" id="Layer_1" xmlns="http://www.w3.org/2000/svg" xmlns:xlink="http://www.w3.org/1999/xlink" x="0px" y="0px"
	 width="25px" height="25px" viewBox="-0.012 0 25 25" enable-background="new -0.012 0 25 25" xml:space="preserve">
<g transform="translate(-37 -32)">
	<g transform="translate(37 32)">
		<path fill="#1A1A1A" d="M8.008,24.733L4.133,16.4l8.396-3.9L8.008,24.733z"/>
		<path fill="#4C4C4C" d="M0.228,8.011l3.904,8.39l8.396-3.899L0.228,8.011z"/>
		<path fill="#A11924" d="M24.748,16.961l-3.876-8.334l-8.343,3.874L24.748,16.961z"/>
		<path fill="#CE0D1D" d="M16.996,0.297l3.875,8.33l-8.343,3.874L16.996,0.297z"/>
		<path fill="#ECB100" d="M0.228,8.012l8.397-3.9l3.904,8.393L0.228,8.012z"/>
		<path fill="#FFDC00" d="M16.996,0.297L8.655,4.168l3.875,8.334L16.996,0.297z"/>
		<path fill="#F88113" d="M8.035,24.72l8.372-3.886l-3.879-8.332L8.035,24.72z"/>
		<path fill="#FF9F15" d="M24.735,16.933l-8.34,3.874l-3.864-8.304L24.735,16.933z"/>
		<path fill="#1A1A1A" d="M-0.012,18.321l4.315-1.999l1.926,4.135L-0.012,18.321z"/>
		<path fill="#4C4C4C" d="M-0.012,18.319l2.377-6.168l1.939,4.167L-0.012,18.319z"/>
		<path fill="#A11924" d="M22.709,12.809l-1.925-4.14l4.204-1.947L22.709,12.809z"/>
		<path fill="#CE0D1D" d="M20.784,8.668l-1.923-4.137l6.123,2.187L20.784,8.668z"/>
		<path fill="#FF9F15" d="M18.342,25l-2.086-4.483l4.114-1.91L18.342,25z"/>
		<path fill="#F88113" d="M12.055,22.465l4.203-1.95L18.344,25L12.055,22.465z"/>
		<path fill="#FFDC00" d="M8.749,4.368L6.718,0l6.144,2.46L8.749,4.368z"/>
		<path fill="#ECB100" d="M4.521,6.259l2.202-6.256l2.002,4.308L4.521,6.259z"/>
	</g>
</g>
</svg>
